<?xml version="1.0" standalone="no"?>
<svg version="1.1" id="downloadSvg" xmlns="http://www.w3.org/2000/svg" xmlns:xlink="http://www.w3.org/1999/xlink" x="0px" y="0px" viewBox="0 0 1200 1200" enable-background="new 0 0 1200 1200" xml:space="preserve" height="512" width="512">
<g>
	<path fill="#9FA190" d="M455.541,650.294c4.47,0.695,9.151,1.479,12.73,4.247c5.417,4.19,6.832,11.69,7.359,18.519&#10;&#9;&#9;c1.014,13.153,0.18,26.447-2.471,39.37c-1.785,8.701-4.694,17.722-11.404,23.541c-6.295,5.459-15.176,7.253-23.453,6.295&#10;&#9;&#9;c-8.277-0.958-16.065-4.406-23.368-8.417c-9.109-5.003-17.708-10.958-25.467-17.872c-10.788-9.613-20.362-22.188-20.862-36.629&#10;&#9;&#9;c-0.598-17.258,12.667-30.318,28.253-35.024C414.139,639.106,437.958,647.558,455.541,650.294z" style="fill: rgb(204, 244, 252);"/>
	
		<ellipse transform="matrix(0.958 -0.2867 0.2867 0.958 -133.8243 290.2126)" fill="#9FA190" cx="923.959" cy="602.022" rx="39.722" ry="39.775" style="fill: rgb(204, 244, 252);"/>
	<path fill="#31353E" d="M808.088,521.405c30.462,23.067,60.924,46.133,91.386,69.2c5.551,4.203,13.315,5.049,19.886,2.748&#10;&#9;&#9;c4.801-1.681,9.445-5.667,9.401-10.753c-0.038-4.39-3.455-7.918-6.64-10.94c-25.817-24.494-51.66-49.01-79.105-71.665&#10;&#9;&#9;c-7.877-6.502-16.922-13.197-27.115-12.553c-6.987,0.442-13.738,4.805-16.47,11.25S802.507,517.179,808.088,521.405z" style="fill: rgb(248, 227, 218);"/>
	<path fill="#E2DED0" d="M936.586,606.237c6.191,4.581,9.378,11.963,9.62,19.319c0.242,7.356-2.217,14.688-5.79,21.402&#10;&#9;&#9;c-8.111,15.238-21.76,27.57-36.269,38.267c-17.333,12.779-37.188,24.015-59.096,26.31c-6.989,0.732-14.197,0.507-20.688-1.723&#10;&#9;&#9;c-13.468-4.626-21.614-16.961-26.433-29.299c-3.358-8.597-5.572-18.113-2.505-26.981c4.019-11.623,15.97-19.397,27.142-26.255&#10;&#9;&#9;c17.554-10.775,38.531-28.73,59.719-32.402c8.103-1.404,16.27,0.656,24.086,2.115C916.433,598.868,928.435,600.206,936.586,606.237&#10;&#9;&#9;z" style="fill: rgb(216, 194, 216);"/>
	<path fill="#9FA190" d="M770.862,649.313c-8.577,0.697-18.26,3.005-22.34,10.581c-1.485,2.758-2.025,5.912-2.542,9.002&#10;&#9;&#9;c-3.248,19.381-6.404,39.844,0.547,58.226c1.173,3.103,2.741,6.243,5.474,8.124c2.375,1.634,5.353,2.119,8.233,2.239&#10;&#9;&#9;c12.14,0.504,23.804-4.699,34.188-11.007c8.874-5.391,17.32-11.781,23.587-20.06c6.267-8.279,10.218-18.639,9.356-28.986&#10;&#9;&#9;C824.923,648.122,793.339,647.488,770.862,649.313z" style="fill: rgb(204, 244, 252);"/>
	<path fill="#E2DED0" d="M629.62,715.699c4.617,70.271-1.622,137.631-1.622,208.539c0,65.376-4.366,112.842-4.816,176.623&#10;&#9;&#9;c-0.125,17.727,2.8,33.556,23.407,34.818c39.158,2.398,101.172,3.486,139.736-3.716c1.503-0.281,3.036-0.58,4.361-1.342&#10;&#9;&#9;c4.72-2.714,4.209-9.406,3.939-14.843c-6.227-125.646-15.62-254.228-22.143-379.899c-1.294-24.941-2.805-49.858-6.486-74.587&#10;&#9;&#9;c-0.652-4.378,0.576-4.722-2.244-8.134c-4.22-5.105-19.669,7.273-26.288,7.531c-35.066,1.366-69.733,11.939-99.593,30.375" style="fill: rgb(216, 194, 216);"/>
	
		<ellipse transform="matrix(0.958 -0.2867 0.2867 0.958 -106.2966 246.149)" fill="#9FA190" cx="787.277" cy="486.002" rx="52.698" ry="52.769" style="fill: rgb(204, 244, 252);"/>
	<path fill="#E2DED0" d="M811.083,547.989c0,28.96-7.461,56.368-20.772,80.776c-33.668,61.771-104.753,104.349-186.994,104.349&#10;&#9;&#9;c-87.138,0-161.741-47.792-192.597-115.57c-9.783-21.472-15.169-44.953-15.169-69.555c0-69.674,43.203-130.362,107.042-161.951&#10;&#9;&#9;c29.832-14.76,64.174-23.169,100.724-23.169c33.792,0,65.704,7.186,93.904,19.942C764.783,413.366,811.083,475.859,811.083,547.989&#10;&#9;&#9;z" style="fill: rgb(216, 194, 216);"/>
	<path fill="#31353E" d="M702.128,508.326c-8.694,6.119-19.791,7.574-30.414,7.962c-24.397,0.889-50.545-3.706-68.327-20.438&#10;&#9;&#9;c-10.025-9.438-16.532-21.903-23.427-33.824c-13.214-22.835-28.836-44.856-49.904-60.742c-8.339-6.292-17.653-11.528-27.462-15.245&#10;&#9;&#9;c29.832-14.76,64.174-23.169,100.724-23.169c33.792,0,65.704,7.186,93.904,19.942c15.169,20.502,20.696,46.656,22.21,72.125&#10;&#9;&#9;C720.595,474.474,718.133,497.061,702.128,508.326z" style="fill: rgb(248, 227, 218);"/>
	<path fill="#E2DED0" d="M935.417,249.19c0,36.588-15.767,70.87-43.294,100.33c-8.657,9.276-18.482,18.073-29.348,26.315&#10;&#9;&#9;c-58.415,44.307-146.851,72.55-245.835,72.55c-69.27,0-133.374-13.834-185.637-37.326c-6.012-2.704-11.873-5.532-17.561-8.484&#10;&#9;&#9;c-26.288-13.634-49.01-29.865-67.169-48.061c-30.49-30.554-48.11-66.652-48.11-105.324c0-30.317,10.828-59.045,30.199-84.768&#10;&#9;&#9;c14.922-19.824,34.918-37.854,58.938-53.443C445.53,73.384,526.867,50,616.94,50c80.006,0,153.122,18.45,209.064,48.923&#10;&#9;&#9;C893.044,135.441,935.417,189.218,935.417,249.19z" style="fill: rgb(216, 194, 216);"/>
	<path fill="#50969B" d="M901.426,316.16c-2.225,11.334-5.344,22.501-9.303,33.361c-8.657,9.276-18.482,18.073-29.348,26.315&#10;&#9;&#9;c-58.415,44.307-146.851,72.55-245.835,72.55c-69.27,0-133.374-13.834-185.637-37.326c-6.012-2.704-11.873-5.532-17.561-8.484&#10;&#9;&#9;c19.048-37.428,25.911-81.132,18.315-122.487c-3.243-17.674-8.98-34.939-10.38-52.856c-1.12-14.27,2.031-31.061,14.695-37.724&#10;&#9;&#9;c6.34-3.34,13.828-3.41,20.993-3.351c116.496,0.905,235.907,14.135,347.351-19.829c18.929-5.775,44.199-17.049,57.451-2.338&#10;&#9;&#9;C885.729,190.161,910.864,268.006,901.426,316.16z" style="fill: rgb(255, 255, 255);"/>
	
		<ellipse transform="matrix(0.3806 -0.9247 0.9247 0.3806 -158.8358 729.5729)" fill="#31353E" cx="465.223" cy="483.361" rx="51.51" ry="38.188" style="fill: rgb(248, 227, 218);"/>
	
		<ellipse transform="matrix(0.958 -0.2867 0.2867 0.958 -120.9626 146.0006)" fill="#9FA190" cx="438.008" cy="486.002" rx="52.698" ry="52.769" style="fill: rgb(204, 244, 252);"/>
	<path fill="#31353E" d="M282.269,565.387c-5.637,4.671-11.335,9.868-13.687,16.8c-0.415,1.223-0.721,2.515-0.583,3.799&#10;&#9;&#9;c0.245,2.291,1.87,4.225,3.745,5.564c8.603,6.143,20.484,1.695,29.945-3.021c35.212-17.549,69.513-36.906,102.927-57.674&#10;&#9;&#9;c6.184-3.843,12.556-7.951,16.352-14.164c3.796-6.213,4.155-15.163-1.165-20.137c-9.928-9.28-22.93-0.828-32.439,4.023&#10;&#9;&#9;c-12.406,6.328-24.767,12.75-36.942,19.513C326.556,533.349,303.322,547.941,282.269,565.387z" style="fill: rgb(248, 227, 218);"/>
	
		<ellipse transform="matrix(0.958 -0.2867 0.2867 0.958 -159.7647 104.245)" fill="#9FA190" cx="276.041" cy="597.606" rx="39.722" ry="39.775" style="fill: rgb(204, 244, 252);"/>
	<path fill="#E2DED0" d="M262.849,605.338c-5.766,5.105-8.294,12.739-7.89,20.087c0.403,7.349,3.495,14.438,7.643,20.812&#10;&#9;&#9;c9.414,14.469,24.091,25.558,39.481,34.943c18.386,11.212,39.149,20.665,61.174,21.033c7.026,0.117,14.187-0.739,20.458-3.528&#10;&#9;&#9;c13.011-5.788,20.046-18.789,23.765-31.501c2.592-8.858,3.964-18.531,0.132-27.096c-5.022-11.227-17.608-17.924-29.338-23.777&#10;&#9;&#9;c-18.431-9.196-40.9-25.245-62.328-27.047c-8.195-0.689-16.15,2.079-23.809,4.216C282.279,596.232,270.441,598.616,262.849,605.338&#10;&#9;&#9;z" style="fill: rgb(216, 194, 216);"/>
	<path fill="#31353E" d="M790.311,628.765c-33.668,61.771-104.753,104.349-186.994,104.349c-87.138,0-161.741-47.792-192.597-115.57&#10;&#9;&#9;c34.433,11.291,72.771,14.712,109.698,17.303c10.17,0.711,20.238,1.363,30.08,2.101c61.938,4.633,125.358,7.192,187.285,1.255&#10;&#9;&#9;c14.415-1.444,28.777-3.512,42.971-6.453C782.366,631.415,785.991,630.176,790.311,628.765z" style="fill: rgb(248, 227, 218);"/>
	<path fill="#E2DED0" d="M398.797,1102.001c-0.491,8.719-0.571,18.377,5.107,25.013c4.685,5.476,12.162,7.496,19.202,9.036&#10;&#9;&#9;c45.252,9.902,92.277,11.643,138.138,5.113c3.206-0.457,6.728-1.134,8.711-3.693c1.642-2.119,1.797-4.995,1.882-7.674&#10;&#9;&#9;c4.295-134.42,5.753-268.931,4.375-403.412c-0.037-3.619-0.14-7.459-2.116-10.491c-1.917-2.943-5.25-4.586-8.423-6.091&#10;&#9;&#9;c-23.987-11.373-48.035-22.617-72.144-33.73c-8.853-4.081-26.699-15.401-35.49-6.975c-6.559,6.292-6.541,17.664-7.688,25.999&#10;&#9;&#9;c-17.456,126.8-39.713,254.296-49.848,381.882C399.84,1085.31,399.231,1093.653,398.797,1102.001z" style="fill: rgb(216, 194, 216);"/>
	<path fill="#9FA190" d="M393.734,1121.331c-4.991,1.825-9.746,4.517-10.233,9.802c-0.317,3.45,2.114,6.697,5.194,8.479&#10;&#9;&#9;c3.08,1.782,6.723,2.386,10.275,2.927c33.484,5.105,67.403,7.601,101.318,7.455c9.74-0.042,19.825-0.378,28.605-4.459&#10;&#9;&#9;c2.377-1.105,4.79-2.672,5.586-5.092c1.318-4.008-2.333-7.824-5.78-10.395c-35.541-26.506-87.694-24.187-127.868-11&#10;&#9;&#9;C398.734,1119.736,396.205,1120.427,393.734,1121.331z" style="fill: rgb(204, 244, 252);"/>
	<path fill="#9FA190" d="M658.63,1121.914c-4.893,2.073-9.507,5.001-9.728,10.304c-0.144,3.462,2.447,6.582,5.613,8.207&#10;&#9;&#9;c3.166,1.625,6.834,2.045,10.409,2.408c33.698,3.418,67.7,4.208,101.565,2.36c9.726-0.531,19.781-1.372,28.345-5.889&#10;&#9;&#9;c2.318-1.223,4.65-2.908,5.324-5.366c1.116-4.069-2.723-7.698-6.294-10.092c-15.106-10.128-30.913-15.625-49.363-16.754&#10;&#9;&#9;c-17.824-1.09-35.848,0.478-53.258,4.421c-8.725,1.976-17.308,4.558-25.638,7.763&#10;&#9;&#9;C663.544,1120.07,661.053,1120.887,658.63,1121.914z" style="fill: rgb(204, 244, 252);"/>
	<path fill="#9FA190" d="M826.005,98.923c-2.726,10.989-10.564,20.486-20.001,26.94c-10.671,7.305-23.271,11.216-35.812,14.389&#10;&#9;&#9;c-68.376,17.302-140.156,15.525-210.33,8.463c-22.081-2.219-44.178-4.961-65.693-10.402c-26.008-6.572-50.933-17.028-77.075-23.034&#10;&#9;&#9;c-9.626-2.214-19.565-3.776-29.493-4.299C445.53,73.384,526.867,50,616.94,50C696.946,50,770.062,68.45,826.005,98.923z" style="fill: rgb(204, 244, 252);"/>
	<g>
		<path fill="#31353E" d="M366.415,368.418c-0.164-0.083-0.102-0.628,0.194-1.648c0.293-1.021,0.851-2.501,1.517-4.529&#10;&#9;&#9;&#9;c1.373-4.031,3.445-10.153,5.283-18.766c1.85-8.604,3.381-19.714,3.8-33.468c0.406-13.753,0.041-30.137-2.349-49.026&#10;&#9;&#9;&#9;c-2.399-18.886-6.145-34.846-9.944-48.061c-1.93-6.569-4.069-12.349-6.657-17.176c-2.574-4.837-5.515-8.722-8.605-11.623&#10;&#9;&#9;&#9;c-1.551-1.451-3.114-2.676-4.629-3.73c-1.544-1.001-3.008-1.888-4.432-2.539c-2.824-1.364-5.337-2.076-7.363-2.461&#10;&#9;&#9;&#9;c-2.03-0.384-3.579-0.506-4.616-0.597c-1.036-0.069-1.575-0.196-1.601-0.377c-0.026-0.181,0.462-0.411,1.519-0.691&#10;&#9;&#9;&#9;c1.057-0.257,2.701-0.477,4.939-0.39c2.233,0.088,5.066,0.557,8.283,1.78c1.623,0.582,3.298,1.423,5.069,2.412&#10;&#9;&#9;&#9;c1.739,1.039,3.539,2.281,5.333,3.788c3.592,3.022,7.023,7.186,9.959,12.291c2.963,5.108,5.372,11.168,7.487,17.884&#10;&#9;&#9;&#9;c4.136,13.403,8.088,29.588,10.533,48.822c2.433,19.233,2.654,35.9,1.969,49.902c-0.698,14.022-2.662,25.412-5.04,34.143&#10;&#9;&#9;&#9;c-2.366,8.746-5.047,14.844-7.036,18.699c-0.974,1.941-1.846,3.301-2.455,4.182C366.961,368.117,366.579,368.501,366.415,368.418z&#10;&#9;&#9;&#9;" style="fill: rgb(248, 227, 218);"/>
	</g>
	<g>
		<path fill="#31353E" d="M646.504,580.961c-0.716,0.138-1.572-0.722-2.422-2.805c-0.844-2.081-1.689-5.393-2.215-10.115&#10;&#9;&#9;&#9;c-0.514-4.723-0.41-8.139-0.039-10.354c0.376-2.219,1.025-3.244,1.753-3.265c0.739-0.021,1.42,0.961,2.002,3.083&#10;&#9;&#9;&#9;c0.588,2.123,1.072,5.383,1.569,9.955c0.51,4.57,0.747,7.858,0.635,10.058C647.681,579.714,647.23,580.82,646.504,580.961z" style="fill: rgb(248, 227, 218);"/>
	</g>
	<g>
		<path fill="#31353E" d="M660.662,582.2c-1.468,0.045-2.782-3.996-3.073-13.49c-0.29-9.494,0.775-13.608,2.242-13.653&#10;&#9;&#9;&#9;c1.467-0.045,2.782,3.996,3.072,13.49C663.194,578.041,662.129,582.155,660.662,582.2z" style="fill: rgb(248, 227, 218);"/>
	</g>
	<g>
		<path fill="#31353E" d="M676.272,582.205c-1.469,0-2.659-4.079-2.659-13.575s1.19-13.574,2.659-13.574&#10;&#9;&#9;&#9;c1.468,0,2.659,4.078,2.659,13.574S677.741,582.205,676.272,582.205z" style="fill: rgb(248, 227, 218);"/>
	</g>
	<g>
		<ellipse fill="#31353E" cx="692.688" cy="567.684" rx="2.659" ry="13.259" style="fill: rgb(248, 227, 218);"/>
	</g>
	<g>
		<path fill="#31353E" d="M706.746,578.43c-1.498-0.121-2.262-3.95-2.088-12.667c0.097-8.719,0.979-12.522,2.48-12.597&#10;&#9;&#9;&#9;c1.431-0.075,2.935,3.71,2.837,12.679C709.795,574.812,708.174,578.549,706.746,578.43z" style="fill: rgb(248, 227, 218);"/>
	</g>
	<g>
		<path fill="#31353E" d="M720.615,579.064c-0.737-0.077-1.284-1.086-1.608-3.138c-0.331-2.055-0.431-5.15-0.466-9.471&#10;&#9;&#9;&#9;c-0.052-4.32-0.013-7.417,0.277-9.478c0.282-2.058,0.809-3.078,1.544-3.17c0.721-0.09,1.516,0.774,2.198,2.81&#10;&#9;&#9;&#9;c0.674,2.033,1.244,5.251,1.298,9.785c0.036,4.534-0.468,7.762-1.102,9.808C722.115,578.26,721.338,579.139,720.615,579.064z" style="fill: rgb(248, 227, 218);"/>
	</g>
	<g>
		<path fill="#31353E" d="M776.929,903.537c0.076,0.359-1.197,0.972-3.94,1.85c-1.372,0.434-3.109,0.952-5.234,1.505&#10;&#9;&#9;&#9;c-2.129,0.531-4.643,1.122-7.556,1.773c-2.916,0.629-6.241,1.256-9.976,1.962c-1.875,0.31-3.852,0.637-5.933,0.982&#10;&#9;&#9;&#9;c-2.081,0.353-4.273,0.677-6.576,0.984c-9.2,1.301-20.159,2.509-32.988,3.241c-12.829,0.733-23.855,0.778-33.143,0.532&#10;&#9;&#9;&#9;c-2.323-0.043-4.537-0.116-6.645-0.23c-2.107-0.106-4.109-0.206-6.006-0.301c-3.791-0.277-7.167-0.522-10.135-0.815&#10;&#9;&#9;&#9;c-2.967-0.316-5.532-0.617-7.708-0.902c-2.175-0.307-3.959-0.624-5.372-0.9c-2.825-0.56-4.159-1.024-4.125-1.389&#10;&#9;&#9;&#9;c0.035-0.365,1.434-0.597,4.301-0.673c1.434-0.042,3.234-0.027,5.416-0.003c2.184,0.002,4.748,0.039,7.706,0.113&#10;&#9;&#9;&#9;c2.958,0.048,6.313,0.102,10.08,0.163c1.883,0.01,3.868,0.021,5.958,0.033c2.089,0.032,4.283,0.029,6.584,0.005&#10;&#9;&#9;&#9;c9.198-0.024,20.098-0.217,32.786-0.942c12.688-0.724,23.539-1.771,32.68-2.793c2.288-0.238,4.468-0.484,6.54-0.754&#10;&#9;&#9;&#9;c2.075-0.249,4.047-0.486,5.916-0.71c3.736-0.489,7.063-0.924,9.997-1.308c2.93-0.41,5.474-0.739,7.643-0.989&#10;&#9;&#9;&#9;c2.165-0.272,3.951-0.492,5.381-0.613C775.436,903.107,776.853,903.178,776.929,903.537z" style="fill: rgb(248, 227, 218);"/>
	</g>
	<g>
		<path fill="#31353E" d="M570.546,903.468c0.068,0.36-1.26,0.944-4.111,1.757c-1.427,0.4-3.23,0.886-5.439,1.379&#10;&#9;&#9;&#9;c-2.214,0.458-4.826,0.963-7.853,1.515c-3.031,0.516-6.489,0.981-10.372,1.522c-1.949,0.205-4.004,0.422-6.167,0.65&#10;&#9;&#9;&#9;c-1.083,0.108-2.193,0.219-3.33,0.333c-1.14,0.08-2.307,0.162-3.502,0.246c-9.557,0.703-20.936,1.058-34.18,0.458&#10;&#9;&#9;&#9;c-13.244-0.598-24.545-1.978-33.999-3.541c-1.183-0.191-2.338-0.378-3.466-0.561c-1.122-0.216-2.218-0.426-3.287-0.632&#10;&#9;&#9;&#9;c-2.134-0.422-4.161-0.824-6.083-1.204c-3.818-0.889-7.22-1.664-10.192-2.451c-2.965-0.823-5.521-1.561-7.685-2.217&#10;&#9;&#9;&#9;c-2.155-0.69-3.907-1.337-5.292-1.864c-2.766-1.068-4.036-1.769-3.936-2.122c0.1-0.353,1.559-0.326,4.471,0.122&#10;&#9;&#9;&#9;c1.458,0.217,3.273,0.568,5.477,0.978c2.212,0.377,4.803,0.852,7.785,1.432c2.992,0.525,6.385,1.121,10.196,1.789&#10;&#9;&#9;&#9;c1.911,0.293,3.926,0.602,6.047,0.927c1.06,0.165,2.146,0.334,3.259,0.508c1.116,0.145,2.26,0.295,3.431,0.447&#10;&#9;&#9;&#9;c9.354,1.276,20.484,2.486,33.515,3.075c13.031,0.59,24.225,0.389,33.655-0.038c1.18-0.047,2.332-0.092,3.458-0.136&#10;&#9;&#9;&#9;c1.124-0.072,2.22-0.143,3.291-0.212c2.142-0.132,4.176-0.258,6.106-0.377c3.855-0.322,7.289-0.609,10.316-0.862&#10;&#9;&#9;&#9;c3.023-0.309,5.646-0.549,7.883-0.724c2.232-0.21,4.071-0.396,5.542-0.48C569.023,903.003,570.478,903.107,570.546,903.468z" style="fill: rgb(248, 227, 218);"/>
	</g>
	<ellipse fill="#84C5C1" cx="595.776" cy="300.509" rx="24.634" ry="58.688" style="fill: rgb(248, 227, 218);"/>
	<ellipse fill="#84C5C1" cx="763.468" cy="293.511" rx="24.634" ry="58.688" style="fill: rgb(248, 227, 218);"/>
	<g>
		<path fill="#31353E" d="M798.805,603.226c0.116,0.281-3.206,2.152-10.768,4.254c-3.779,1.026-8.615,2.056-14.52,2.93&#10;&#9;&#9;&#9;c-2.952,0.443-6.168,0.853-9.644,1.261c-3.478,0.369-7.221,0.766-11.233,1.192c-4.015,0.405-8.301,0.836-12.861,1.296&#10;&#9;&#9;&#9;c-4.568,0.371-9.412,0.766-14.535,1.182c-2.563,0.199-5.196,0.405-7.899,0.615c-2.707,0.165-5.484,0.334-8.333,0.507&#10;&#9;&#9;&#9;c-2.849,0.171-5.769,0.346-8.762,0.525c-1.496,0.088-3.011,0.178-4.543,0.269c-1.534,0.064-3.085,0.129-4.655,0.194&#10;&#9;&#9;&#9;c-25.109,1.184-54.92,1.776-89.658,0.758c-69.498-2.107-118.843-8.911-150.699-13.94c-7.965-1.301-14.835-2.572-20.678-3.619&#10;&#9;&#9;&#9;c-2.923-0.514-5.577-1.053-7.975-1.557c-2.397-0.509-4.542-0.964-6.442-1.367c-7.587-1.656-11.191-2.644-11.123-3.004&#10;&#9;&#9;&#9;c0.067-0.361,3.797-0.061,11.481,0.966c7.674,1.058,19.334,2.664,35.284,4.862c31.908,4.064,81.099,10.246,150.304,12.345&#10;&#9;&#9;&#9;c34.594,1.014,64.281,0.573,89.305-0.338c1.565-0.048,3.111-0.095,4.64-0.141c1.528-0.072,3.037-0.143,4.529-0.214&#10;&#9;&#9;&#9;c2.983-0.138,5.895-0.273,8.735-0.405c2.841-0.129,5.611-0.255,8.31-0.378c2.697-0.163,5.324-0.321,7.881-0.475&#10;&#9;&#9;&#9;c5.115-0.308,9.949-0.599,14.51-0.873c4.556-0.337,8.838-0.653,12.85-0.95c4.014-0.29,7.757-0.561,11.236-0.813&#10;&#9;&#9;&#9;c3.474-0.275,6.674-0.547,9.605-0.844c5.864-0.584,10.65-1.299,14.428-1.998C795.121,604.02,798.658,602.823,798.805,603.226z" style="fill: rgb(248, 227, 218);"/>
	</g>
	<g>
		<path fill="#31353E" d="M831.358,709.156c-0.284-0.235,0.025-1.144,0.954-2.772c0.912-1.634,2.504-3.961,4.361-7.189&#10;&#9;&#9;&#9;c1.82-3.227,3.757-7.45,4.865-13.013c1.006-5.53,1.233-12.423-0.979-19.913c-1.113-3.726-2.657-7.015-4.441-9.82&#10;&#9;&#9;&#9;c-0.472-0.683-0.935-1.352-1.389-2.008c-0.445-0.666-0.966-1.226-1.426-1.83c-0.511-0.558-0.997-1.119-1.506-1.638&#10;&#9;&#9;&#9;c-0.531-0.495-1.011-1.025-1.546-1.469c-4.174-3.706-8.403-5.679-11.823-6.574c-3.442-0.922-6.109-0.892-7.875-0.793&#10;&#9;&#9;&#9;c-0.903-0.015-1.557,0.114-2.04,0.062c-0.476-0.027-0.753-0.125-0.82-0.296c-0.066-0.171,0.081-0.407,0.469-0.716&#10;&#9;&#9;&#9;c0.395-0.284,1.002-0.751,1.936-1.069c1.815-0.762,4.904-1.448,9.058-0.877c4.129,0.544,9.252,2.462,14.269,6.531&#10;&#9;&#9;&#9;c5.047,4.037,9.697,10.52,12.23,18.983c2.509,8.501,2.088,16.295,0.671,22.462c-1.512,6.191-4.124,10.837-6.512,14.043&#10;&#9;&#9;&#9;c-2.419,3.2-4.487,5.187-5.904,6.438C832.48,708.935,831.639,709.389,831.358,709.156z" style="fill: rgb(248, 227, 218);"/>
	</g>
	<g>
		<path fill="#31353E" d="M348.48,700.907c-0.192-0.313,0.301-1.054,1.518-2.231c0.604-0.595,1.408-1.272,2.365-2.109&#10;&#9;&#9;&#9;c0.935-0.87,2.049-1.862,3.351-2.976c1.277-1.147,2.671-2.506,4.281-3.965c0.765-0.774,1.571-1.59,2.42-2.449&#10;&#9;&#9;&#9;c0.425-0.427,0.862-0.864,1.308-1.313c0.425-0.47,0.859-0.951,1.304-1.444c3.597-3.893,7.618-8.748,11.574-14.913&#10;&#9;&#9;&#9;c3.957-6.164,6.697-11.842,8.738-16.733c0.262-0.61,0.519-1.205,0.769-1.787c0.222-0.593,0.438-1.171,0.648-1.736&#10;&#9;&#9;&#9;c0.428-1.129,0.834-2.203,1.219-3.22c0.655-2.072,1.31-3.905,1.821-5.543c0.471-1.648,0.908-3.074,1.31-4.286&#10;&#9;&#9;&#9;c0.362-1.219,0.643-2.232,0.932-3.029c0.564-1.597,1.032-2.353,1.396-2.309c0.364,0.044,0.591,0.885,0.651,2.614&#10;&#9;&#9;&#9;c0.022,0.863,0.035,1.953-0.056,3.265c-0.131,1.304-0.321,2.837-0.575,4.609c-0.293,1.762-0.76,3.736-1.262,5.963&#10;&#9;&#9;&#9;c-0.322,1.094-0.66,2.247-1.017,3.461c-0.185,0.606-0.375,1.227-0.569,1.864c-0.23,0.624-0.465,1.264-0.705,1.918&#10;&#9;&#9;&#9;c-1.891,5.246-4.65,11.316-8.826,17.821c-4.175,6.506-8.544,11.543-12.526,15.446c-0.495,0.492-0.978,0.971-1.45,1.44&#10;&#9;&#9;&#9;c-0.498,0.442-0.984,0.873-1.457,1.294c-0.955,0.83-1.862,1.619-2.723,2.367c-1.815,1.384-3.415,2.63-4.895,3.631&#10;&#9;&#9;&#9;c-1.505,0.968-2.821,1.78-3.952,2.442c-1.154,0.63-2.151,1.072-2.945,1.411C349.531,701.076,348.672,701.22,348.48,700.907z" style="fill: rgb(248, 227, 218);"/>
	</g>
	<g>
		<path fill="#FFF6DE" d="M795.855,99.903c-0.231,0.5-1.319,0.585-3.314,0.209c-0.999-0.186-2.22-0.498-3.683-0.91&#10;&#9;&#9;&#9;c-1.47-0.399-3.175-0.914-5.123-1.552c-1.954-0.624-4.168-1.33-6.627-2.178c-2.485-0.782-5.198-1.756-8.225-2.719&#10;&#9;&#9;&#9;c-6.028-1.994-13.177-4.314-21.593-6.761c-8.415-2.447-15.694-4.322-21.852-5.87c-3.071-0.811-5.883-1.443-8.4-2.114&#10;&#9;&#9;&#9;c-2.53-0.603-4.778-1.193-6.762-1.715c-1.986-0.505-3.702-0.985-5.156-1.437c-1.457-0.436-2.654-0.827-3.597-1.206&#10;&#9;&#9;&#9;c-1.886-0.753-2.758-1.408-2.686-1.953c0.073-0.546,1.085-0.93,3.124-1.12c1.019-0.092,2.296-0.148,3.837-0.127&#10;&#9;&#9;&#9;c1.539,0.035,3.344,0.129,5.425,0.284c2.078,0.171,4.426,0.448,7.06,0.779c2.622,0.4,5.542,0.802,8.725,1.43&#10;&#9;&#9;&#9;c6.379,1.184,13.891,2.885,22.507,5.39c8.617,2.505,15.87,5.096,21.889,7.517c3.023,1.176,5.705,2.403,8.132,3.471&#10;&#9;&#9;&#9;c2.402,1.133,4.532,2.158,6.378,3.128c1.84,0.984,3.414,1.873,4.732,2.668c1.312,0.809,2.361,1.541,3.171,2.165&#10;&#9;&#9;&#9;C795.437,98.536,796.085,99.403,795.855,99.903z"/>
	</g>
	<g>
		<path fill="#FFF6DE" d="M876.995,149.791c-0.421,0.355-1.157,0.318-2.197-0.129c-0.523-0.22-1.107-0.557-1.792-0.975&#10;&#9;&#9;&#9;c-0.701-0.404-1.483-0.91-2.344-1.522c-0.881-0.594-1.878-1.262-2.952-2.046c-1.13-0.728-2.297-1.617-3.674-2.498&#10;&#9;&#9;&#9;c-2.695-1.821-5.935-3.914-9.864-6.208c-3.926-2.296-7.393-4.173-10.314-5.819c-2.917-1.649-5.297-3.053-7.124-4.281&#10;&#9;&#9;&#9;c-3.663-2.446-5.119-4.168-4.668-5.178c0.447-1.001,2.695-1.11,6.996,0.041c2.15,0.582,4.818,1.476,8.015,2.812&#10;&#9;&#9;&#9;c3.195,1.331,6.932,3.091,11.125,5.542c4.193,2.448,7.612,4.93,10.305,7.259c1.37,1.13,2.502,2.31,3.534,3.333&#10;&#9;&#9;&#9;c0.986,1.086,1.841,2.068,2.537,2.985c0.679,0.938,1.229,1.774,1.661,2.51c0.416,0.752,0.692,1.424,0.877,1.981&#10;&#9;&#9;&#9;C877.48,148.72,877.416,149.436,876.995,149.791z"/>
	</g>
	<g>
		<path fill="#FFF6DE" d="M469.488,515.322c-0.839-0.788-0.123-2.752,1.419-6.382c0.768-1.821,1.71-4.095,2.638-6.947&#10;&#9;&#9;&#9;c0.913-2.853,1.828-6.295,2.355-10.416c0.527-4.136,0.558-7.765,0.528-10.855c-0.081-3.137-0.146-5.694-0.198-7.712&#10;&#9;&#9;&#9;c-0.078-4.113,0.294-6.228,1.38-6.52c1.038-0.282,2.601,1.314,4.157,5.449c0.768,2.067,1.512,4.778,1.988,8.211&#10;&#9;&#9;&#9;c0.461,3.426,0.673,7.596,0.057,12.442c-0.621,4.859-1.946,8.91-3.442,12.13c-1.512,3.224-3.201,5.622-4.744,7.309&#10;&#9;&#9;&#9;C472.503,515.408,470.238,516.045,469.488,515.322z"/>
	</g>
	<g>
		<path fill="#FFF6DE" d="M828.596,476.59c-1.031,0.404-2.531-0.778-4.482-3.71c-0.979-1.46-2.074-3.349-3.376-5.596&#10;&#9;&#9;&#9;c-1.312-2.239-2.816-4.849-4.831-7.578c-1.993-2.695-4.013-4.714-5.795-6.289c-1.797-1.563-3.375-2.692-4.674-3.572&#10;&#9;&#9;&#9;c-2.589-1.753-4.065-2.747-3.93-3.894c0.068-0.546,0.534-1.005,1.518-1.33c0.97-0.28,2.478-0.422,4.446-0.036&#10;&#9;&#9;&#9;c1.969,0.364,4.393,1.255,6.997,2.914c2.588,1.666,5.356,4.092,7.848,7.461c2.462,3.34,3.975,6.48,5.043,9.135&#10;&#9;&#9;&#9;c1.056,2.668,1.653,4.891,1.985,6.675C829.994,474.338,829.615,476.191,828.596,476.59z"/>
	</g>
	<g>
		<path fill="#FFF6DE" d="M955.843,597.194c-1.122,0.028-2.091-0.677-2.994-1.971c-0.461-0.649-0.894-1.453-1.386-2.412&#10;&#9;&#9;&#9;c-0.48-0.962-0.998-2.087-1.656-3.372c-0.657-1.286-1.267-2.364-1.766-3.316c-0.49-0.96-0.888-1.782-1.145-2.536&#10;&#9;&#9;&#9;c-0.521-1.489-0.525-2.687,0.154-3.581c0.648-0.858,1.91-1.232,3.746-0.494c0.904,0.376,1.952,1.025,3.013,2.056&#10;&#9;&#9;&#9;c1.069,1.021,2.168,2.417,3.099,4.239c0.932,1.821,1.421,3.529,1.624,4.993c0.215,1.464,0.128,2.693-0.096,3.646&#10;&#9;&#9;&#9;C957.96,596.366,956.918,597.17,955.843,597.194z"/>
	</g>
	<g>
		<path fill="#FFF6DE" d="M903.317,669.539c-0.679-0.898,0.198-2.74,2.686-5.749c0.621-0.755,1.332-1.596,2.161-2.497&#10;&#9;&#9;&#9;c0.8-0.934,1.742-1.904,2.735-3.014c2.019-2.187,4.417-4.752,7.125-7.823c2.708-3.071,4.954-5.77,6.871-8.046&#10;&#9;&#9;&#9;c0.978-1.125,1.823-2.18,2.65-3.09c0.791-0.936,1.537-1.746,2.208-2.456c2.675-2.845,4.393-3.945,5.369-3.384&#10;&#9;&#9;&#9;c0.933,0.536,0.937,2.648-0.624,6.433c-0.393,0.944-0.898,1.982-1.49,3.135c-0.629,1.128-1.318,2.392-2.188,3.711&#10;&#9;&#9;&#9;c-1.701,2.663-3.922,5.694-6.814,8.972c-2.891,3.278-5.62,5.861-8.051,7.881c-1.2,1.028-2.367,1.87-3.408,2.634&#10;&#9;&#9;&#9;c-1.071,0.732-2.037,1.362-2.925,1.869C906.062,670.138,903.965,670.398,903.317,669.539z"/>
	</g>
	<g>
		<path fill="#FFF6DE" d="M798.862,571.407c-0.55-0.032-1.023-1.284-1.394-3.832c-0.192-1.274-0.332-2.872-0.492-4.805&#10;&#9;&#9;&#9;c-0.198-1.934-0.38-4.202-0.54-6.816c-0.191-2.613-0.485-5.568-0.706-8.882c-0.17-1.652-0.35-3.394-0.539-5.228&#10;&#9;&#9;&#9;c-0.088-0.916-0.179-1.855-0.272-2.818c-0.125-0.958-0.253-1.939-0.384-2.943c-0.281-2.004-0.479-4.114-0.838-6.295&#10;&#9;&#9;&#9;c-0.35-2.18-0.715-4.454-1.096-6.823c-0.466-2.35-0.952-4.794-1.457-7.334c-0.562-2.525-1.227-5.124-1.858-7.834&#10;&#9;&#9;&#9;c-2.783-10.775-6.181-19.69-9.48-26.995c-0.405-0.918-0.801-1.816-1.187-2.692c-0.389-0.875-0.847-1.688-1.249-2.506&#10;&#9;&#9;&#9;c-0.817-1.631-1.593-3.181-2.329-4.651c-0.807-1.432-1.569-2.786-2.288-4.063c-0.733-1.27-1.346-2.52-2.039-3.612&#10;&#9;&#9;&#9;c-1.378-2.188-2.541-4.117-3.501-5.79c-1.012-1.632-1.889-2.954-2.504-4.079c-1.252-2.231-1.649-3.518-1.24-3.887&#10;&#9;&#9;&#9;c0.409-0.369,1.586,0.216,3.611,1.882c1.001,0.843,2.262,1.917,3.654,3.346c1.338,1.47,2.878,3.241,4.623,5.326&#10;&#9;&#9;&#9;c0.877,1.04,1.668,2.249,2.579,3.494c0.887,1.26,1.849,2.587,2.806,4.029c0.889,1.484,1.826,3.049,2.812,4.697&#10;&#9;&#9;&#9;c0.479,0.833,1.014,1.666,1.477,2.561c0.456,0.9,0.923,1.821,1.401,2.763c3.854,7.526,7.657,16.875,10.573,28.167&#10;&#9;&#9;&#9;c0.663,2.835,1.345,5.562,1.904,8.208c0.484,2.658,0.95,5.216,1.398,7.675c0.327,2.474,0.641,4.85,0.942,7.127&#10;&#9;&#9;&#9;c0.293,2.277,0.411,4.471,0.599,6.56c0.08,1.045,0.158,2.066,0.235,3.063c0.035,0.999,0.07,1.974,0.103,2.925&#10;&#9;&#9;&#9;c0.053,1.901,0.103,3.706,0.15,5.418c-0.06,3.426-0.092,6.472-0.261,9.151c-0.2,2.68-0.415,4.992-0.641,6.953&#10;&#9;&#9;&#9;c-0.264,1.96-0.579,3.566-0.864,4.836C799.986,570.248,799.411,571.439,798.862,571.407z"/>
	</g>
	<g>
		<path fill="#FFF6DE" d="M381.967,627.299c-0.279,0.475-1.095,0.62-2.459,0.405c-0.684-0.105-1.496-0.314-2.463-0.592&#10;&#9;&#9;&#9;c-0.979-0.261-2.1-0.611-3.368-1.057c-5.102-1.768-12.818-4.494-23.831-8.698c-11.025-4.216-18.784-8.239-23.332-11.6&#10;&#9;&#9;&#9;c-1.136-0.851-2.092-1.62-2.878-2.31c-0.775-0.711-1.365-1.367-1.807-1.919c-0.879-1.115-1.125-1.888-0.821-2.347&#10;&#9;&#9;&#9;c0.304-0.459,1.128-0.562,2.476-0.28c0.677,0.137,1.474,0.388,2.424,0.708c0.963,0.302,2.065,0.699,3.306,1.196&#10;&#9;&#9;&#9;c5.006,1.957,12.575,4.926,23.516,9.115c10.959,4.182,18.783,7.912,23.443,11.077c1.166,0.797,2.15,1.522,2.962,2.175&#10;&#9;&#9;&#9;c0.804,0.672,1.426,1.293,1.893,1.824C381.96,626.063,382.246,626.824,381.967,627.299z"/>
	</g>
	<g>
		<path fill="#FFF6DE" d="M300.121,583.519c-1.084,0.306-2.206-0.194-3.454-1.316c-0.314-0.281-0.653-0.596-0.977-0.963&#10;&#9;&#9;&#9;c-0.367-0.347-0.688-0.764-1.092-1.188c-0.764-0.87-1.628-1.894-2.703-3.027c-1.074-1.133-2.05-2.051-2.879-2.86&#10;&#9;&#9;&#9;c-0.402-0.426-0.801-0.768-1.128-1.153c-0.349-0.343-0.646-0.698-0.91-1.027c-1.053-1.306-1.493-2.453-1.13-3.519&#10;&#9;&#9;&#9;c0.18-0.521,0.54-0.944,1.132-1.23c0.596-0.297,1.409-0.422,2.461-0.325c0.523,0.053,1.094,0.183,1.73,0.36&#10;&#9;&#9;&#9;c0.611,0.217,1.309,0.453,2.005,0.837c1.419,0.725,2.988,1.828,4.506,3.43c1.518,1.602,2.537,3.227,3.185,4.682&#10;&#9;&#9;&#9;c0.346,0.716,0.545,1.426,0.729,2.047c0.143,0.645,0.241,1.222,0.267,1.747c0.041,1.056-0.127,1.861-0.456,2.44&#10;&#9;&#9;&#9;C301.093,583.03,300.65,583.368,300.121,583.519z"/>
	</g>
	<g>
		<path fill="#FFF6DE" d="M560.138,876.455c-1.12-0.068-1.808-4.389-2.128-13.628c-0.171-4.621-0.242-10.471-0.309-17.642&#10;&#9;&#9;&#9;c-0.061-7.167-0.132-15.659-0.216-25.563c-0.172-9.904-0.319-18.394-0.444-25.56c-0.119-7.17-0.198-13.02-0.147-17.643&#10;&#9;&#9;&#9;c0.081-9.245,0.658-13.582,1.776-13.679c1.076-0.094,2.487,4.079,3.851,13.294c0.671,4.607,1.337,10.474,1.862,17.693&#10;&#9;&#9;&#9;c0.535,7.218,0.949,15.789,1.078,25.793c0.129,10.004-0.062,18.583-0.411,25.812c-0.338,7.231-0.852,13.112-1.404,17.735&#10;&#9;&#9;&#9;C562.52,872.313,561.217,876.521,560.138,876.455z"/>
	</g>
	<g>
		<path fill="#FFF6DE" d="M552.939,1102.631c-1.113-0.069-1.689-6.409-1.672-20.036c0.004-13.629,0.615-34.542,1.509-63.797&#10;&#9;&#9;&#9;c0.862-29.256,1.505-50.168,2.318-63.772c0.799-13.603,1.755-19.898,2.87-19.9c1.088-0.002,2.126,6.293,2.77,19.934&#10;&#9;&#9;&#9;c0.63,13.64,0.879,34.632,0.015,63.977c-0.896,29.344-2.403,50.284-3.849,63.861&#10;&#9;&#9;&#9;C555.439,1096.478,554.025,1102.698,552.939,1102.631z"/>
	</g>
	<g>
		<path fill="#FFF6DE" d="M779.956,1075.441c-1.107,0.061-2.337-4.479-3.651-14.366c-1.32-9.887-2.718-25.12-4.35-46.452&#10;&#9;&#9;&#9;c-1.649-21.332-2.598-36.599-2.805-46.571c-0.214-9.971,0.308-14.646,1.41-14.755c1.089-0.108,2.552,4.372,4.205,14.228&#10;&#9;&#9;&#9;c1.646,9.856,3.488,25.092,5.142,46.487c1.637,21.396,2.146,36.734,2.027,46.726&#10;&#9;&#9;&#9;C781.809,1070.731,781.049,1075.382,779.956,1075.441z"/>
	</g>
	<g>
		<path fill="#FFF6DE" d="M767.549,872.939c-2.199,0.123-5.339-24.103-8.498-80.741c-3.159-56.639-2.734-81.063-0.534-81.185&#10;&#9;&#9;&#9;c2.199-0.123,5.339,24.102,8.498,80.741C770.174,848.393,769.748,872.817,767.549,872.939z"/>
	</g>
	<g>
		<path fill="#FFF6DE" d="M779.381,720.772c-0.23-0.5-0.038-1.175,0.599-2.011c0.317-0.421,0.751-0.872,1.29-1.38&#10;&#9;&#9;&#9;c0.534-0.52,1.18-1.082,1.945-1.686c0.758-0.616,1.615-1.306,2.601-2.026c0.956-0.772,2.065-1.538,3.233-2.458&#10;&#9;&#9;&#9;c2.369-1.785,5.156-3.903,8.28-6.527c3.124-2.623,5.692-5.001,7.861-7.025c1.108-0.991,2.054-1.951,2.98-2.758&#10;&#9;&#9;&#9;c0.88-0.846,1.708-1.571,2.446-2.211c0.727-0.648,1.393-1.187,1.997-1.623c0.594-0.444,1.113-0.792,1.583-1.032&#10;&#9;&#9;&#9;c0.934-0.482,1.632-0.555,2.085-0.241c0.452,0.314,0.616,0.984,0.438,2.05c-0.091,0.531-0.259,1.167-0.534,1.894&#10;&#9;&#9;&#9;c-0.286,0.718-0.667,1.537-1.149,2.457c-0.493,0.912-1.117,1.903-1.839,3.005c-0.767,1.063-1.601,2.268-2.646,3.487&#10;&#9;&#9;&#9;c-2.042,2.48-4.686,5.247-8.093,8.106c-3.406,2.86-6.589,4.986-9.385,6.568c-1.381,0.818-2.713,1.43-3.892,2.002&#10;&#9;&#9;&#9;c-1.211,0.521-2.295,0.964-3.278,1.291c-0.991,0.316-1.862,0.55-2.619,0.707c-0.763,0.145-1.419,0.201-1.957,0.198&#10;&#9;&#9;&#9;C780.244,721.55,779.611,721.272,779.381,720.772z"/>
	</g>
</g>
</svg>